<svg id="Layer_1" enable-background="new 0 0 128 128" height="512" viewBox="0 0 128 128" width="512" xmlns="http://www.w3.org/2000/svg"><g><path d="m66 7.5c-32.257 0-58.5 26.243-58.5 58.5s26.243 58.5 58.5 58.5 58.5-26.243 58.5-58.5-26.243-58.5-58.5-58.5zm0 92.5c-18.748 0-34-15.252-34-34s15.252-34 34-34 34 15.252 34 34-15.252 34-34 34z" fill="#e6e7e8"/><g><g><path d="m28.208 15.489c-9.704 7.063-17.11 17.083-20.896 28.742l21.4 6.953c2.304-7.097 6.812-13.196 12.719-17.495 5.775-4.203 12.88-6.689 20.569-6.689v-22.5c-12.632 0-24.305 4.084-33.792 10.989z" fill="#fa759e"/><path d="m95.792 15.489c-9.487-6.905-21.16-10.989-33.792-10.989v22.5c7.689 0 14.794 2.486 20.569 6.689 5.907 4.299 10.415 10.398 12.719 17.495l21.4-6.953c-3.786-11.659-11.191-21.679-20.896-28.742z" fill="#0089ef"/><g><path d="m62 7.5c31.253 0 56.664 24.939 57.462 56 .013-.5.038-.997.038-1.5 0-31.756-25.744-57.5-57.5-57.5s-57.5 25.744-57.5 57.5c0 .503.025 1 .038 1.5.798-31.061 26.209-56 57.462-56z" fill="#fff"/></g><path d="m28.712 72.816c-1.107-3.407-1.712-7.04-1.712-10.816s.605-7.409 1.712-10.816l-21.4-6.953c-1.818 5.597-2.812 11.566-2.812 17.769s.994 12.172 2.812 17.769c3.786 11.659 11.191 21.679 20.896 28.742l13.223-18.2c-5.907-4.299-10.415-10.398-12.719-17.495z" fill="#ffd7e5"/><path d="m116.688 44.231-21.4 6.953c1.107 3.407 1.712 7.04 1.712 10.816s-.605 7.409-1.712 10.816c-2.304 7.097-6.812 13.196-12.719 17.495l13.223 18.2c9.704-7.063 17.11-17.083 20.896-28.742 1.818-5.597 2.812-11.566 2.812-17.769s-.994-12.172-2.812-17.769z" fill="#6dc9f7"/><path d="m82.569 90.311c-5.775 4.203-12.88 6.689-20.569 6.689s-14.794-2.486-20.569-6.689l-13.223 18.2c9.487 6.905 21.16 10.989 33.792 10.989s24.305-4.084 33.792-10.989z" fill="#d4fbff"/><path d="" fill="#fff"/></g><g fill="#3a2c60"><path d="m116.671 79.892c-.524-.183-1.092.096-1.272.617-3.761 10.854-10.627 19.999-19.39 26.6l-12.061-16.602c8.537-6.588 14.052-16.913 14.052-28.507 0-3.531-.52-6.941-1.471-10.167l19.506-6.338c1.599 5.224 2.465 10.764 2.465 16.505 0 .552.447 1 1 1s1-.448 1-1c0-32.257-26.243-58.5-58.5-58.5s-58.5 26.243-58.5 58.5 26.243 58.5 58.5 58.5c24.915 0 47.134-15.808 55.289-39.335.181-.522-.096-1.092-.618-1.273zm-54.671 16.108c-18.748 0-34-15.252-34-34s15.252-34 34-34 34 15.252 34 34-15.252 34-34 34zm53.406-52.404-19.494 6.334c-4.866-13.632-17.729-23.487-32.912-23.905v-20.5c24.276.426 44.857 16.229 52.406 38.071zm-54.406-38.071v20.5c-15.183.418-28.046 10.273-32.912 23.905l-19.494-6.334c7.549-21.842 28.13-37.645 52.406-38.071zm-55.5 56.475c0-5.741.866-11.281 2.465-16.505l19.506 6.338c-.951 3.226-1.471 6.636-1.471 10.167 0 11.594 5.515 21.919 14.052 28.507l-12.05 16.586c-13.657-10.323-22.502-26.693-22.502-45.093zm24.124 46.263 12.042-16.575c5.79 3.977 12.794 6.312 20.334 6.312s14.544-2.335 20.333-6.313l12.058 16.597c-9.285 6.495-20.519 10.216-32.391 10.216-12.038 0-23.199-3.796-32.376-10.237z"/><path d="m119.396 65.624c-.545-.042-1.032.367-1.076.917-.261 3.275-.81 6.538-1.629 9.697-.139.535.182 1.081.717 1.219.084.022.169.032.252.032.444 0 .85-.298.967-.749.85-3.271 1.417-6.649 1.688-10.041.043-.55-.368-1.032-.919-1.075z"/></g></g></g></svg>