<svg height="511pt" viewBox="0 0 511.99999 511" width="511pt" xmlns="http://www.w3.org/2000/svg"><path d="m496.625 95.914062-80.042969-80.039062c-20.5-20.5-53.855469-20.5-74.359375 0l-311.996094 311.996094c-3.488281 3.488281-5.824218 7.886718-6.757812 12.726562l-22.632812 117.191406c-2.898438 15.011719 1.828124 30.425782 12.636718 41.238282 10.808594 10.808594 26.226563 15.53125 41.238282 12.632812l117.191406-22.628906c4.839844-.9375 9.242187-3.273438 12.726562-6.757812l311.996094-311.996094c20.5-20.5 20.5-53.859375 0-74.363282zm-447.605469 386.289063c-5.292969 1.023437-10.519531-.578125-14.332031-4.390625-3.816406-3.816406-5.414062-9.039062-4.394531-14.332031l17.832031-92.335938 93.230469 93.226563zm122.921875-29.671875-111.96875-111.972656 257.585938-257.585938 111.972656 111.96875zm303.46875-303.46875-24.667968 24.664062-111.96875-111.972656 24.664062-24.664062c8.804688-8.804688 23.128906-8.804688 31.929688 0l80.042968 80.039062c8.800782 8.804688 8.800782 23.128906 0 31.933594zm0 0"/></svg>