<svg id="line" enable-background="new 0 0 36 36" height="512" viewBox="0 0 36 36" width="512" xmlns="http://www.w3.org/2000/svg"><path d="m31.833 8.377c0 6.917 3.583 11.667 3.583 15s-1.916 10.333-17.249 10.333-17.584-9.417-17.584-13.083c0-17.167 31.25-24.5 31.25-12.25z" fill="#efefef"/><g fill="#a4afc1"><path d="m26.467 4.967h1v2h-1z" transform="matrix(.707 -.707 .707 .707 3.682 20.82)"/><path d="m30.533 9.033h1v2h-1z" transform="matrix(.707 -.707 .707 .707 1.997 24.887)"/><path d="m29.856 5.467h2v1h-2z" transform="matrix(.707 -.707 .707 .707 4.818 23.566)"/></g><path d="m20.25 26.25h-11.5c-1.105 0-2-.895-2-2v-13.5c0-1.105.895-2 2-2h11.5c1.105 0 2 .895 2 2v13.5c0 1.105-.895 2-2 2z" fill="#f3f3f1"/><circle cx="23.5" cy="23.5" fill="#2fdf84" r="5.75"/><path d="m20 23.5c0-2.79 1.988-5.115 4.625-5.638-.364-.072-.74-.112-1.125-.112-3.176 0-5.75 2.574-5.75 5.75s2.574 5.75 5.75 5.75c.385 0 .761-.039 1.125-.112-2.637-.523-4.625-2.848-4.625-5.638z" fill="#00b871"/><path d="m9 24.25v-13.5c0-1.105.895-2 2-2h-2.25c-1.105 0-2 .895-2 2v13.5c0 1.105.895 2 2 2h2.25c-1.105 0-2-.895-2-2z" fill="#d5dbe1"/><path d="m23.5 30c-3.584 0-6.5-2.916-6.5-6.5s2.916-6.5 6.5-6.5 6.5 2.916 6.5 6.5-2.916 6.5-6.5 6.5zm0-11.5c-2.757 0-5 2.243-5 5s2.243 5 5 5 5-2.243 5-5-2.243-5-5-5z"/><path d="m22.75 20.75h1.5v5.5h-1.5z"/><path d="m20.75 22.75h5.5v1.5h-5.5z"/><path d="m15.19 27h-6.44c-1.517 0-2.75-1.233-2.75-2.75v-13.5c0-1.517 1.233-2.75 2.75-2.75h11.5c1.517 0 2.75 1.233 2.75 2.75v4.09h-1.5v-4.09c0-.689-.561-1.25-1.25-1.25h-11.5c-.689 0-1.25.561-1.25 1.25v13.5c0 .689.561 1.25 1.25 1.25h6.44z"/><path d="m9 6h1.5v5h-1.5z"/><path d="m13.75 6h1.5v5h-1.5z"/><path d="m18.5 6h1.5v5h-1.5z"/><path d="m9.75 18h6.41v1.5h-6.41z"/><path d="m9.75 14h4.5v1.5h-4.5z"/></svg>